<svg width="331" height="223" viewBox="0 0 331 223" fill="none" xmlns="http://www.w3.org/2000/svg">
<line x1="3" y1="183" x2="293" y2="183" stroke="#000080" stroke-width="4"/>
<line x1="291" y1="182.722" x2="291" y2="24" stroke="#000080" stroke-width="4"/>
<line y1="-2" x2="330.594" y2="-2" transform="matrix(0.877208 -0.48011 0.524362 0.851495 3 182.722)" stroke="#000080" stroke-width="4"/>
<path d="M99.6258 95.6764L102.624 100.486C102.976 101.095 103.152 101.465 103.153 101.594C103.269 101.859 103.298 102.101 103.239 102.32C103.195 102.53 102.985 102.743 102.611 102.959C102.431 103.063 102.222 103.037 101.983 102.879C101.736 102.707 101.522 102.48 101.34 102.197C99.8347 99.8143 98.3831 97.604 96.9848 95.5661C95.5924 93.5064 94.3642 91.5551 93.3002 89.7122C93.1322 89.4212 93.0972 89.1365 93.1952 88.8583C93.2931 88.58 93.4738 88.3649 93.737 88.2129C94.125 87.9889 94.5457 88.1894 94.9989 88.8145C95.4661 89.4316 95.9946 90.235 96.5844 91.2247C97.1881 92.2063 97.6359 92.9178 97.9276 93.3591C98.4124 92.5988 99.0012 92.0187 99.694 91.6187C101.301 90.6907 102.728 90.8093 103.973 91.9747C104.687 92.6344 105.407 93.5947 106.135 94.8556C106.375 95.2713 106.714 95.9535 107.151 96.9021C107.594 97.8289 107.884 98.428 108.022 98.6993C108.16 98.9705 108.162 99.2464 108.029 99.5268C107.901 99.7854 107.712 99.9866 107.463 100.131C107.075 100.355 106.761 100.259 106.521 99.8431L104.578 96.1426C104.402 95.8377 104.097 95.34 103.661 94.6493C103.225 93.9586 102.756 93.4814 102.252 93.2177C101.763 92.9461 101.2 92.9942 100.562 93.3622C99.4259 94.0182 99.1138 94.7896 99.6258 95.6764ZM103.806 84.7277C104.055 84.5837 104.358 84.5655 104.716 84.673C105.074 84.7806 105.329 84.966 105.481 85.2293C105.625 85.4787 105.648 85.807 105.551 86.2143C105.467 86.6136 105.294 86.8892 105.03 87.0412C104.767 87.1932 104.461 87.2224 104.111 87.1287C103.775 87.027 103.507 86.8029 103.307 86.4565C102.923 85.7914 103.075 85.2231 103.764 84.7517C103.778 84.7437 103.792 84.7357 103.806 84.7277ZM110.966 95.1148L111.827 96.5578C111.979 96.821 112.003 97.1027 111.899 97.4029C111.788 97.6891 111.614 97.9003 111.378 98.0363C111.032 98.2363 110.752 98.1671 110.538 97.8287C107.806 93.5125 106.304 91.1188 106.032 90.6477C105.76 90.1766 105.449 89.5895 105.098 88.8866C104.982 88.6212 105.069 88.4045 105.36 88.2365C106.095 87.8125 106.682 87.8704 107.123 88.4102C107.341 88.691 107.502 88.9215 107.606 89.1017L108.278 90.4591L110.966 95.1148ZM117.938 94.0552C117.467 94.3272 116.938 94.4198 116.352 94.3331C116.352 94.3331 116.218 94.3089 115.95 94.2605L119.55 100.496C119.627 100.821 119.614 101.134 119.51 101.434C119.414 101.748 119.248 101.973 119.013 102.109C118.652 102.317 118.332 102.178 118.052 101.693L109.688 87.2064C109.563 86.7982 109.512 86.4858 109.535 86.2694C109.572 86.045 109.715 85.8608 109.964 85.7168C110.228 85.5648 110.43 85.5311 110.571 85.6158C110.718 85.6787 110.999 85.9414 111.414 86.4039C111.31 86.0948 111.383 85.7105 111.635 85.2509C111.887 84.7913 112.339 84.3736 112.99 83.9976C114.403 83.1816 115.704 83.1143 116.892 83.7956C118.08 84.477 119.078 85.5174 119.886 86.9169C120.686 88.3026 120.913 89.6402 120.567 90.9297C120.228 92.1974 119.351 93.2392 117.938 94.0552ZM112.758 88.7318L114.99 92.5977C115.097 92.5913 115.234 92.6046 115.401 92.6376C116.011 92.7659 116.551 92.694 117.023 92.422C118.935 91.318 119.323 89.7822 118.187 87.8146C117.219 86.138 116.177 85.3259 115.062 85.3785C114.59 85.3925 114.091 85.5515 113.564 85.8555C113.091 86.2208 112.787 86.7015 112.651 87.2974C112.506 87.8796 112.542 88.3577 112.758 88.7318ZM121.643 79.0295C122.641 78.4535 123.734 78.4596 124.924 79.0477C126.127 79.6278 127.116 80.5898 127.892 81.9339C128.66 83.2641 128.984 84.5924 128.863 85.9186C128.756 87.2368 128.155 88.212 127.06 88.844C125.979 89.468 124.83 89.4939 123.613 88.9218C122.388 88.3359 121.435 87.454 120.755 86.2762C119.883 84.7658 119.492 83.3843 119.582 82.1317C119.681 80.7996 120.368 79.7655 121.643 79.0295ZM122.378 80.8779C121.796 81.2139 121.494 81.7947 121.471 82.6204C121.449 83.4461 121.634 84.1984 122.026 84.8774C122.634 85.9305 123.306 86.6141 124.042 86.9284C124.778 87.2426 125.409 87.2478 125.935 86.9438C126.877 86.3998 127.244 85.643 127.035 84.6735C126.922 84.2215 126.698 83.7045 126.362 83.1226C125.05 80.8501 123.722 80.1019 122.378 80.8779ZM126.855 75.9929L127.906 75.4137C128.141 75.2777 128.269 75.1948 128.289 75.1649L125.829 70.9041C125.707 70.6605 125.708 70.3916 125.834 70.0973C125.96 69.803 126.12 69.5999 126.314 69.4879C126.508 69.3759 126.696 69.3502 126.879 69.411C127.076 69.4637 127.243 69.6257 127.381 69.8969C127.519 70.1682 128.344 71.6133 129.856 74.2321L132.24 72.745C132.656 72.505 133.004 72.6275 133.284 73.1124C133.492 73.4727 133.537 73.8069 133.419 74.115C133.315 74.4152 133.143 74.6442 132.901 74.802C132.674 74.9519 132.442 75.0948 132.207 75.2308L130.927 75.942C131.255 76.5101 131.958 77.6005 133.037 79.2131C134.13 80.8178 134.855 81.8495 135.212 82.3083C135.561 82.7533 135.759 83.064 135.806 83.2404C135.844 83.403 135.824 83.544 135.745 83.6634C135.613 83.8505 135.394 84.0321 135.089 84.2081C134.785 84.3841 134.508 84.3218 134.261 84.0213C132.936 82.3661 131.309 79.9799 129.38 76.8628C129.263 76.9487 128.789 77.2316 127.958 77.7116C127.126 78.1916 126.571 78.1891 126.291 77.7041C125.891 77.0113 126.079 76.4409 126.855 75.9929ZM136.521 70.523C137.255 70.099 138.079 69.9098 138.992 69.9554C139.905 70.0009 140.546 70.3424 140.914 70.9798C141.274 71.6033 141.355 72.369 141.159 73.2768C140.955 74.1708 140.438 74.9401 139.609 75.5848C139.253 75.8643 138.687 76.228 137.911 76.676C138.744 77.7658 139.49 78.3697 140.149 78.4879C140.376 78.5603 140.607 78.5285 140.842 78.3925C141.702 77.8965 142.266 77.2103 142.536 76.3339C142.798 75.4436 143.054 74.9265 143.303 74.7825C143.414 74.7185 143.64 74.7264 143.982 74.8063C144.324 74.8861 144.546 75.0161 144.65 75.1962C144.858 75.5565 144.722 76.3281 144.241 77.5111C144.037 78.0538 143.722 78.596 143.296 79.1377C142.875 79.6575 142.43 80.0535 141.958 80.3255C140.753 81.0215 139.418 80.7575 137.954 79.5336C137.042 78.7855 136.254 77.8364 135.59 76.6863C134.926 75.5362 134.624 74.3895 134.684 73.2461C134.745 72.1027 135.357 71.195 136.521 70.523ZM137.453 71.8972C136.926 72.2012 136.648 72.7591 136.618 73.5709C136.599 73.8588 136.739 74.4059 137.039 75.2123C138.979 74.0923 139.673 73.0542 139.121 72.0981C138.785 71.5162 138.229 71.4492 137.453 71.8972ZM147.783 75.9927L142.682 67.6862C142.53 67.4229 142.496 67.1562 142.58 66.8859C142.665 66.6156 142.797 66.4285 142.977 66.3245C143.42 66.0685 143.785 66.1075 144.07 66.4416C144.341 66.7838 144.593 67.1557 144.825 67.5576C145.005 66.1418 145.657 65.1099 146.779 64.4619C148.497 63.4699 150.488 64.9346 152.752 68.8559C152.96 69.2162 153.276 69.7635 153.7 70.4979C154.116 71.2184 154.379 71.769 154.488 72.1495C154.631 72.6212 154.453 73.0011 153.954 73.2891C153.621 73.4811 153.327 73.3554 153.071 72.912L152.42 71.736C151.492 70.1287 150.804 69.066 150.357 68.5481C149.916 68.0082 149.547 67.5931 149.25 67.3027C148.583 66.6905 147.986 66.5363 147.459 66.8403C146.767 67.2403 146.426 67.7698 146.436 68.4286C146.444 69.145 146.631 69.8864 147 70.6528C147.647 71.9974 148.387 73.3903 149.219 74.8313C149.379 75.1085 149.403 75.3902 149.291 75.6764C149.179 75.9627 148.977 76.1899 148.687 76.3579C148.34 76.5579 148.039 76.4362 147.783 75.9927ZM151.585 62.7955C151.505 62.5279 151.51 62.2659 151.603 62.0095C151.687 61.7392 151.819 61.5521 151.999 61.4481C152.193 61.3361 152.358 61.2867 152.495 61.3C152.646 61.3053 152.745 61.3317 152.791 61.3791C152.85 61.4185 152.934 61.4995 153.042 61.6221C153.583 62.7509 154.105 63.7517 154.609 64.6247C155.105 65.4838 155.781 66.4145 156.637 67.4169C157.485 68.4054 158.033 68.8277 158.283 68.6837C158.657 68.4677 159.008 67.9878 159.336 67.2441C159.678 66.4924 159.842 65.816 159.827 65.2147C158.509 63.3154 157.438 61.6521 156.614 60.2249C156.446 59.9339 156.392 59.6325 156.452 59.3206C156.526 59.0008 156.694 58.7649 156.958 58.6129C157.387 58.3649 157.77 58.5319 158.106 59.1138C158.674 60.0976 159.587 61.5195 160.846 63.3794C162.118 65.2313 162.983 66.3765 163.439 66.815C163.531 66.9099 163.621 67.0335 163.709 67.186C163.789 67.3245 163.768 67.5122 163.646 67.7489C163.546 67.9914 163.343 68.2007 163.038 68.3767C162.747 68.5447 162.457 68.4904 162.168 68.2139C161.981 67.9527 161.671 67.5771 161.24 67.0868C160.854 68.6583 160.17 69.7281 159.186 70.2961C158.729 70.5601 158.22 70.6229 157.66 70.4845C157.099 70.3461 156.543 70.0389 155.991 69.5631C154.967 68.621 154.163 67.6442 153.579 66.6327C152.995 65.6212 152.33 64.3421 151.585 62.7955ZM161.358 59.5918C160.886 58.7743 160.801 57.9551 161.103 57.1341C161.405 56.3131 161.937 55.6826 162.699 55.2426C163.475 54.7946 164.296 54.5052 165.163 54.3743C166.03 54.2434 166.595 54.4066 166.859 54.8639C166.995 55.0995 167.013 55.3385 166.913 55.5811C166.813 55.8236 166.693 55.9849 166.555 56.0649C166.43 56.1369 166.326 56.1969 166.243 56.2449C166.166 56.2711 165.813 56.2994 165.184 56.33C164.569 56.3526 164.06 56.4799 163.658 56.7119C163.256 56.9439 162.97 57.2478 162.799 57.6237C162.634 57.9777 162.663 58.3486 162.887 58.7366C163.111 59.1246 163.447 59.3374 163.893 59.3751C164.354 59.4048 165.041 59.2668 165.955 58.9611C166.86 58.6415 167.612 58.5032 168.209 58.5462C168.821 58.5812 169.354 58.9936 169.81 59.7834C170.474 60.9335 170.641 61.927 170.312 62.764C169.988 63.5791 169.396 64.2347 168.537 64.7307C167.678 65.2267 166.876 65.5329 166.13 65.6493C165.398 65.7578 164.896 65.5764 164.624 65.1053C164.312 64.5649 164.427 64.1387 164.967 63.8267C165.106 63.7467 165.466 63.6677 166.05 63.5897C166.633 63.5117 167.153 63.3407 167.61 63.0767C168.081 62.8047 168.351 62.4552 168.418 62.0282C168.492 61.5794 168.416 61.161 168.192 60.773C167.968 60.385 167.649 60.1999 167.234 60.2176C166.812 60.2215 166.243 60.356 165.527 60.6211C164.812 60.8863 164.266 61.0445 163.889 61.0958C162.866 61.2432 162.022 60.7419 161.358 59.5918ZM173.277 49.191C173.887 48.839 174.491 49.1826 175.091 50.2218C175.155 50.3327 175.223 50.4505 175.295 50.5752L176.094 52.0541C176.344 52.5194 176.597 52.9737 176.853 53.4171L179.877 57.9344C180.077 58.2808 179.823 58.658 179.117 59.066C179.075 59.09 178.971 59.15 178.805 59.246C178.653 59.334 178.506 59.3357 178.364 59.251C178.237 59.1583 178.142 59.0099 178.08 58.8057C178.031 58.5936 177.901 58.4007 177.69 58.227C177.445 59.2739 176.795 60.1014 175.742 60.7094C173.789 61.8374 171.94 60.8911 170.196 57.8704C169.228 56.1937 168.808 54.7459 168.935 53.5268C169.076 52.2997 169.736 51.3461 170.914 50.6661C171.468 50.3461 172.078 50.1231 172.745 49.9971C172.781 49.6437 172.958 49.375 173.277 49.191ZM172.207 52.3304C171.417 52.7864 170.961 53.355 170.837 54.0363C170.713 54.7176 171.003 55.6679 171.707 56.8872C172.891 58.938 174.037 59.6434 175.145 59.0034C175.436 58.8354 175.679 58.5197 175.873 58.0564C176.082 57.5852 176.159 57.1433 176.106 56.7307C175.937 55.8305 175.597 54.9369 175.085 54.0501C174.573 53.1633 174.09 52.583 173.636 52.3092C173.196 52.0273 172.72 52.0344 172.207 52.3304ZM182.617 47.8447C181.689 46.2374 181.064 44.9631 180.742 44.0218C180.426 43.0587 180.254 42.1516 180.224 41.3003C180.186 40.4352 180.194 39.4885 180.247 38.4603C180.314 37.424 180.466 36.6801 180.704 36.2286C180.809 36.0574 180.944 35.9239 181.111 35.8279C181.277 35.7319 181.49 35.7012 181.75 35.7357C182.01 35.7703 182.176 35.8499 182.248 35.9746C182.312 36.0855 182.286 36.7752 182.168 38.0439C182.057 39.2907 181.989 40.1335 181.965 40.5722C181.941 41.0109 181.975 41.5178 182.067 42.0929C182.165 42.6461 182.376 43.3001 182.701 44.0548C183.032 44.7876 183.477 45.639 184.037 46.6089C184.597 47.5789 185.374 48.5717 186.366 49.5873C187.359 50.603 188.159 51.2037 188.765 51.3896C190.679 51.9844 191.724 52.4342 191.9 52.739C191.988 52.8914 191.959 53.0652 191.813 53.2604C191.675 53.4694 191.481 53.6458 191.231 53.7898C190.996 53.9258 190.74 53.9627 190.464 53.9004C188.519 53.3792 186.959 52.6449 185.783 51.6976C184.6 50.7363 183.545 49.4521 182.617 47.8447ZM193.148 37.7183C193.758 37.3663 194.363 37.71 194.963 38.7492C195.027 38.86 195.095 38.9778 195.167 39.1025L195.965 40.5815C196.215 41.0467 196.468 41.501 196.724 41.9445L199.748 46.4618C199.948 46.8082 199.695 47.1854 198.988 47.5934C198.946 47.6174 198.843 47.6774 198.676 47.7734C198.524 47.8614 198.377 47.863 198.236 47.7783C198.108 47.6856 198.013 47.5372 197.951 47.3331C197.902 47.1209 197.772 46.928 197.561 46.7543C197.316 47.8013 196.667 48.6288 195.614 49.2368C193.66 50.3648 191.811 49.4184 190.067 46.3977C189.099 44.7211 188.679 43.2732 188.806 42.0541C188.948 40.827 189.607 39.8735 190.785 39.1935C191.339 38.8735 191.95 38.6505 192.616 38.5245C192.652 38.1711 192.829 37.9023 193.148 37.7183ZM192.078 40.8577C191.289 41.3137 190.832 41.8824 190.708 42.5636C190.584 43.2449 190.874 44.1952 191.578 45.4146C192.762 47.4653 193.908 48.1707 195.017 47.5307C195.308 47.3627 195.55 47.0471 195.745 46.5838C195.953 46.1125 196.03 45.6706 195.977 45.2581C195.808 44.3578 195.468 43.4643 194.956 42.5775C194.444 41.6907 193.961 41.1103 193.507 40.8365C193.067 40.5547 192.591 40.5617 192.078 40.8577ZM201.922 35.1745C202.978 37.0036 203.637 38.5446 203.899 39.7977C204.174 41.0428 204.209 42.6392 204.003 44.587C203.896 45.554 203.789 46.1518 203.681 46.3805C203.573 46.6092 203.415 46.7836 203.207 46.9036C203.013 47.0156 202.789 47.0434 202.534 46.987C202.288 46.9444 202.121 46.8469 202.033 46.6945C202.009 46.6529 202.059 45.8757 202.183 44.3629C202.321 42.8421 202.37 41.7425 202.329 41.0639C202.289 40.3854 202.085 39.6163 201.718 38.7566C201.343 37.8831 200.871 36.9544 200.303 35.9706C199.727 34.9729 198.936 33.9703 197.929 32.9626C196.928 31.9331 196.125 31.3255 195.519 31.1396C193.571 30.5827 192.494 30.1241 192.286 29.7638C192.214 29.6391 192.251 29.4792 192.397 29.2841C192.557 29.0809 192.761 28.9073 193.011 28.7633C193.274 28.6113 193.49 28.5697 193.659 28.6384C195.735 29.1948 197.366 29.9714 198.551 30.9683C199.743 31.9434 200.866 33.3455 201.922 35.1745Z" fill="#000080"/>
<path d="M88.576 204.384C88.576 203.312 88.856 202.336 89.416 201.456C89.992 200.576 90.72 199.92 91.6 199.488C92.48 199.04 93.336 198.816 94.168 198.816C95 198.816 95.664 198.92 96.16 199.128C96.672 199.32 96.928 199.584 96.928 199.92C96.928 200.24 96.832 200.568 96.64 200.904C96.464 201.224 96.224 201.384 95.92 201.384C95.808 201.384 95.496 201.296 94.984 201.12C94.488 200.928 94.168 200.832 94.024 200.832C93.096 200.832 92.304 201.176 91.648 201.864C90.992 202.536 90.664 203.432 90.664 204.552C90.664 205.672 90.84 206.512 91.192 207.072C91.56 207.616 92.184 207.888 93.064 207.888C93.416 207.888 94.016 207.688 94.864 207.288C95.728 206.872 96.264 206.664 96.472 206.664C96.68 206.664 96.848 206.728 96.976 206.856C97.104 206.984 97.168 207.144 97.168 207.336C97.168 207.72 96.92 208.128 96.424 208.56C95.944 208.976 95.344 209.328 94.624 209.616C93.904 209.888 93.256 210.024 92.68 210.024C91.4 210.024 90.392 209.52 89.656 208.512C88.936 207.504 88.576 206.128 88.576 204.384ZM104.913 198.792C105.617 198.792 105.969 199.392 105.969 200.592C105.969 200.72 105.969 200.856 105.969 201L105.921 202.68C105.905 203.208 105.897 203.728 105.897 204.24L106.257 209.664C106.257 210.064 105.849 210.264 105.033 210.264C104.985 210.264 104.865 210.264 104.673 210.264C104.497 210.264 104.369 210.192 104.289 210.048C104.225 209.904 104.217 209.728 104.265 209.52C104.329 209.312 104.313 209.08 104.217 208.824C103.481 209.608 102.505 210 101.289 210C99.0327 210 97.9047 208.256 97.9047 204.768C97.9047 202.832 98.2647 201.368 98.9847 200.376C99.7207 199.384 100.769 198.888 102.129 198.888C102.769 198.888 103.409 199 104.049 199.224C104.257 198.936 104.545 198.792 104.913 198.792ZM102.417 200.976C101.505 200.976 100.825 201.24 100.377 201.768C99.9287 202.296 99.7047 203.264 99.7047 204.672C99.7047 207.04 100.345 208.224 101.625 208.224C101.961 208.224 102.329 208.072 102.729 207.768C103.145 207.464 103.433 207.12 103.593 206.736C103.897 205.872 104.049 204.928 104.049 203.904C104.049 202.88 103.921 202.136 103.665 201.672C103.425 201.208 103.009 200.976 102.417 200.976ZM108.215 198.792L109.415 198.816C109.687 198.816 109.839 198.808 109.871 198.792V193.872C109.887 193.6 110.023 193.368 110.279 193.176C110.535 192.984 110.775 192.888 110.999 192.888C111.223 192.888 111.399 192.96 111.527 193.104C111.671 193.248 111.735 193.472 111.719 193.776C111.703 194.08 111.695 195.744 111.695 198.768L114.503 198.672C114.983 198.672 115.223 198.952 115.223 199.512C115.223 199.928 115.095 200.24 114.839 200.448C114.599 200.656 114.335 200.768 114.047 200.784C113.775 200.8 113.503 200.808 113.231 200.808L111.767 200.784C111.767 201.44 111.831 202.736 111.959 204.672C112.103 206.608 112.215 207.864 112.295 208.44C112.375 209 112.391 209.368 112.343 209.544C112.295 209.704 112.207 209.816 112.079 209.88C111.871 209.976 111.591 210.024 111.239 210.024C110.887 210.024 110.679 209.832 110.615 209.448C110.295 207.352 110.079 204.472 109.967 200.808C109.823 200.824 109.271 200.832 108.311 200.832C107.351 200.832 106.871 200.552 106.871 199.992C106.871 199.192 107.319 198.792 108.215 198.792ZM119.321 198.888C120.169 198.888 120.977 199.136 121.745 199.632C122.513 200.128 122.897 200.744 122.897 201.48C122.897 202.2 122.585 202.904 121.961 203.592C121.337 204.264 120.505 204.672 119.465 204.816C119.017 204.88 118.345 204.912 117.449 204.912C117.625 206.272 117.969 207.168 118.481 207.6C118.641 207.776 118.857 207.864 119.129 207.864C120.121 207.864 120.953 207.552 121.625 206.928C122.297 206.288 122.777 205.968 123.065 205.968C123.193 205.968 123.385 206.088 123.641 206.328C123.897 206.568 124.025 206.792 124.025 207C124.025 207.416 123.521 208.016 122.513 208.8C122.065 209.168 121.521 209.48 120.881 209.736C120.257 209.976 119.673 210.096 119.129 210.096C117.737 210.096 116.713 209.2 116.057 207.408C115.641 206.304 115.433 205.088 115.433 203.76C115.433 202.432 115.745 201.288 116.369 200.328C116.993 199.368 117.977 198.888 119.321 198.888ZM119.441 200.544C118.833 200.544 118.313 200.888 117.881 201.576C117.721 201.816 117.569 202.36 117.425 203.208C119.665 203.208 120.785 202.656 120.785 201.552C120.785 200.88 120.337 200.544 119.441 200.544ZM126.028 198.792L127.228 198.816C127.5 198.816 127.652 198.808 127.684 198.792V193.872C127.7 193.6 127.836 193.368 128.092 193.176C128.348 192.984 128.588 192.888 128.812 192.888C129.036 192.888 129.212 192.96 129.34 193.104C129.484 193.248 129.548 193.472 129.532 193.776C129.516 194.08 129.508 195.744 129.508 198.768L132.316 198.672C132.796 198.672 133.036 198.952 133.036 199.512C133.036 199.928 132.908 200.24 132.652 200.448C132.412 200.656 132.148 200.768 131.86 200.784C131.588 200.8 131.316 200.808 131.044 200.808L129.58 200.784C129.58 201.44 129.644 202.736 129.772 204.672C129.916 206.608 130.028 207.864 130.108 208.44C130.188 209 130.204 209.368 130.156 209.544C130.108 209.704 130.02 209.816 129.892 209.88C129.684 209.976 129.404 210.024 129.052 210.024C128.7 210.024 128.492 209.832 128.428 209.448C128.108 207.352 127.892 204.472 127.78 200.808C127.636 200.824 127.084 200.832 126.124 200.832C125.164 200.832 124.684 200.552 124.684 199.992C124.684 199.192 125.132 198.792 126.028 198.792ZM137.926 198.816C139.078 198.816 140.022 199.368 140.758 200.472C141.51 201.576 141.886 202.904 141.886 204.456C141.886 205.992 141.502 207.304 140.734 208.392C139.982 209.48 138.974 210.024 137.71 210.024C136.462 210.024 135.454 209.472 134.686 208.368C133.918 207.248 133.534 206.008 133.534 204.648C133.534 202.904 133.886 201.512 134.59 200.472C135.342 199.368 136.454 198.816 137.926 198.816ZM137.638 200.784C136.966 200.784 136.414 201.136 135.982 201.84C135.55 202.544 135.334 203.288 135.334 204.072C135.334 205.288 135.574 206.216 136.054 206.856C136.534 207.496 137.078 207.816 137.686 207.816C138.774 207.816 139.47 207.344 139.774 206.4C139.902 205.952 139.966 205.392 139.966 204.72C139.966 202.096 139.19 200.784 137.638 200.784ZM155.585 198.792C156.289 198.792 156.641 199.392 156.641 200.592C156.641 200.72 156.641 200.856 156.641 201L156.593 202.68C156.577 203.208 156.569 203.728 156.569 204.24L156.929 209.664C156.929 210.064 156.521 210.264 155.705 210.264C155.657 210.264 155.537 210.264 155.345 210.264C155.169 210.264 155.041 210.192 154.961 210.048C154.897 209.904 154.889 209.728 154.937 209.52C155.001 209.312 154.985 209.08 154.889 208.824C154.153 209.608 153.177 210 151.961 210C149.705 210 148.577 208.256 148.577 204.768C148.577 202.832 148.937 201.368 149.657 200.376C150.393 199.384 151.441 198.888 152.801 198.888C153.441 198.888 154.081 199 154.721 199.224C154.929 198.936 155.217 198.792 155.585 198.792ZM153.089 200.976C152.177 200.976 151.497 201.24 151.049 201.768C150.601 202.296 150.377 203.264 150.377 204.672C150.377 207.04 151.017 208.224 152.297 208.224C152.633 208.224 153.001 208.072 153.401 207.768C153.817 207.464 154.105 207.12 154.265 206.736C154.569 205.872 154.721 204.928 154.721 203.904C154.721 202.88 154.593 202.136 154.337 201.672C154.097 201.208 153.681 200.976 153.089 200.976ZM164.023 198.768L163.999 194.136C163.999 193.272 164.271 192.84 164.815 192.84C165.375 192.84 165.687 193.08 165.751 193.56C165.783 193.768 165.823 195.024 165.871 197.328C165.919 199.632 165.991 201.792 166.087 203.808C166.199 205.824 166.255 207.704 166.255 209.448C166.255 209.928 165.895 210.168 165.175 210.168C164.695 210.168 164.455 209.832 164.455 209.16C163.767 209.704 162.951 209.976 162.007 209.976C160.807 209.976 159.831 209.528 159.079 208.632C158.343 207.736 157.975 206.632 157.975 205.32C157.975 204.008 158.239 202.784 158.767 201.648C159.311 200.496 160.151 199.672 161.287 199.176C161.991 198.872 162.671 198.72 163.327 198.72C163.567 198.72 163.799 198.736 164.023 198.768ZM164.143 202.056C164.031 201.704 163.895 201.44 163.735 201.264C163.575 201.072 163.399 200.96 163.207 200.928C163.031 200.88 162.815 200.856 162.559 200.856C162.303 200.856 161.991 200.952 161.623 201.144C161.255 201.336 160.943 201.648 160.687 202.08C160.175 202.944 159.919 203.856 159.919 204.816C159.919 205.76 160.103 206.536 160.471 207.144C160.855 207.736 161.391 208.032 162.079 208.032C162.783 208.032 163.335 207.688 163.735 207C164.135 206.312 164.335 205.432 164.335 204.36C164.335 203.16 164.271 202.392 164.143 202.056ZM169.391 194.952C169.679 194.952 169.951 195.088 170.207 195.36C170.463 195.632 170.591 195.92 170.591 196.224C170.591 196.512 170.447 196.808 170.159 197.112C169.887 197.416 169.599 197.568 169.295 197.568C168.991 197.568 168.711 197.44 168.455 197.184C168.215 196.928 168.095 196.6 168.095 196.2C168.095 195.432 168.511 195.016 169.343 194.952C169.359 194.952 169.375 194.952 169.391 194.952ZM168.623 199.656C168.591 199.4 168.679 199.192 168.887 199.032C169.095 198.856 169.407 198.768 169.823 198.768C170.239 198.768 170.471 198.968 170.519 199.368C170.743 201.336 170.855 203.2 170.855 204.96C170.855 206.72 170.799 208.48 170.687 210.24C170.575 212.016 170.319 213.384 169.919 214.344C169.375 215.608 168.391 216.24 166.967 216.24C166.247 216.24 165.623 216.016 165.095 215.568C164.567 215.12 164.303 214.584 164.303 213.96C164.303 213.624 164.423 213.368 164.663 213.192C164.903 213.016 165.167 212.928 165.455 212.928C165.743 212.928 165.959 213 166.103 213.144C166.247 213.288 166.343 213.448 166.391 213.624C166.551 214.088 166.823 214.32 167.207 214.32C167.607 214.32 167.943 214.008 168.215 213.384C168.503 212.76 168.687 211.912 168.767 210.84C168.863 209.768 168.911 208.632 168.911 207.432C168.911 203.672 168.815 201.08 168.623 199.656ZM179.983 198.792C180.687 198.792 181.039 199.392 181.039 200.592C181.039 200.72 181.039 200.856 181.039 201L180.991 202.68C180.975 203.208 180.967 203.728 180.967 204.24L181.327 209.664C181.327 210.064 180.919 210.264 180.103 210.264C180.055 210.264 179.935 210.264 179.743 210.264C179.567 210.264 179.439 210.192 179.359 210.048C179.295 209.904 179.287 209.728 179.335 209.52C179.399 209.312 179.383 209.08 179.287 208.824C178.551 209.608 177.575 210 176.359 210C174.103 210 172.975 208.256 172.975 204.768C172.975 202.832 173.335 201.368 174.055 200.376C174.791 199.384 175.839 198.888 177.199 198.888C177.839 198.888 178.479 199 179.119 199.224C179.327 198.936 179.615 198.792 179.983 198.792ZM177.487 200.976C176.575 200.976 175.895 201.24 175.447 201.768C174.999 202.296 174.775 203.264 174.775 204.672C174.775 207.04 175.415 208.224 176.695 208.224C177.031 208.224 177.399 208.072 177.799 207.768C178.215 207.464 178.503 207.12 178.663 206.736C178.967 205.872 179.119 204.928 179.119 203.904C179.119 202.88 178.991 202.136 178.735 201.672C178.495 201.208 178.079 200.976 177.487 200.976ZM182.349 204.384C182.349 203.312 182.629 202.336 183.189 201.456C183.765 200.576 184.493 199.92 185.373 199.488C186.253 199.04 187.109 198.816 187.941 198.816C188.773 198.816 189.437 198.92 189.933 199.128C190.445 199.32 190.701 199.584 190.701 199.92C190.701 200.24 190.605 200.568 190.413 200.904C190.237 201.224 189.997 201.384 189.693 201.384C189.581 201.384 189.269 201.296 188.757 201.12C188.261 200.928 187.941 200.832 187.797 200.832C186.869 200.832 186.077 201.176 185.421 201.864C184.765 202.536 184.437 203.432 184.437 204.552C184.437 205.672 184.613 206.512 184.965 207.072C185.333 207.616 185.957 207.888 186.837 207.888C187.189 207.888 187.789 207.688 188.637 207.288C189.501 206.872 190.037 206.664 190.245 206.664C190.453 206.664 190.621 206.728 190.749 206.856C190.877 206.984 190.941 207.144 190.941 207.336C190.941 207.72 190.693 208.128 190.197 208.56C189.717 208.976 189.117 209.328 188.397 209.616C187.677 209.888 187.029 210.024 186.453 210.024C185.173 210.024 184.165 209.52 183.429 208.512C182.709 207.504 182.349 206.128 182.349 204.384ZM195.446 198.888C196.294 198.888 197.102 199.136 197.87 199.632C198.638 200.128 199.022 200.744 199.022 201.48C199.022 202.2 198.71 202.904 198.086 203.592C197.462 204.264 196.63 204.672 195.59 204.816C195.142 204.88 194.47 204.912 193.574 204.912C193.75 206.272 194.094 207.168 194.606 207.6C194.766 207.776 194.982 207.864 195.254 207.864C196.246 207.864 197.078 207.552 197.75 206.928C198.422 206.288 198.902 205.968 199.19 205.968C199.318 205.968 199.51 206.088 199.766 206.328C200.022 206.568 200.15 206.792 200.15 207C200.15 207.416 199.646 208.016 198.638 208.8C198.19 209.168 197.646 209.48 197.006 209.736C196.382 209.976 195.798 210.096 195.254 210.096C193.862 210.096 192.838 209.2 192.182 207.408C191.766 206.304 191.558 205.088 191.558 203.76C191.558 202.432 191.87 201.288 192.494 200.328C193.118 199.368 194.102 198.888 195.446 198.888ZM195.566 200.544C194.958 200.544 194.438 200.888 194.006 201.576C193.846 201.816 193.694 202.36 193.55 203.208C195.79 203.208 196.91 202.656 196.91 201.552C196.91 200.88 196.462 200.544 195.566 200.544ZM202.465 209.256L202.201 199.512C202.201 199.208 202.305 198.96 202.513 198.768C202.721 198.576 202.929 198.48 203.137 198.48C203.649 198.48 203.945 198.696 204.025 199.128C204.089 199.56 204.121 200.008 204.121 200.472C204.985 199.336 206.065 198.768 207.361 198.768C209.345 198.768 210.337 201.032 210.337 205.56C210.337 205.976 210.337 206.608 210.337 207.456C210.337 208.288 210.289 208.896 210.193 209.28C210.081 209.76 209.737 210 209.161 210C208.777 210 208.585 209.744 208.585 209.232L208.609 207.888C208.609 206.032 208.545 204.768 208.417 204.096C208.305 203.408 208.193 202.864 208.081 202.464C207.809 201.6 207.369 201.168 206.761 201.168C205.961 201.168 205.401 201.456 205.081 202.032C204.729 202.656 204.521 203.392 204.457 204.24C204.345 205.728 204.289 207.304 204.289 208.968C204.289 209.288 204.169 209.544 203.929 209.736C203.689 209.928 203.401 210.024 203.065 210.024C202.665 210.024 202.465 209.768 202.465 209.256ZM213.004 198.792L214.204 198.816C214.476 198.816 214.628 198.808 214.66 198.792V193.872C214.676 193.6 214.812 193.368 215.068 193.176C215.324 192.984 215.564 192.888 215.788 192.888C216.012 192.888 216.188 192.96 216.316 193.104C216.46 193.248 216.524 193.472 216.508 193.776C216.492 194.08 216.484 195.744 216.484 198.768L219.292 198.672C219.772 198.672 220.012 198.952 220.012 199.512C220.012 199.928 219.884 200.24 219.628 200.448C219.388 200.656 219.124 200.768 218.836 200.784C218.564 200.8 218.292 200.808 218.02 200.808L216.556 200.784C216.556 201.44 216.62 202.736 216.748 204.672C216.892 206.608 217.004 207.864 217.084 208.44C217.164 209 217.18 209.368 217.132 209.544C217.084 209.704 216.996 209.816 216.868 209.88C216.66 209.976 216.38 210.024 216.028 210.024C215.676 210.024 215.468 209.832 215.404 209.448C215.084 207.352 214.868 204.472 214.756 200.808C214.612 200.824 214.06 200.832 213.1 200.832C212.14 200.832 211.66 200.552 211.66 199.992C211.66 199.192 212.108 198.792 213.004 198.792ZM224.11 198.888C224.958 198.888 225.766 199.136 226.534 199.632C227.302 200.128 227.686 200.744 227.686 201.48C227.686 202.2 227.374 202.904 226.75 203.592C226.126 204.264 225.294 204.672 224.254 204.816C223.806 204.88 223.134 204.912 222.238 204.912C222.414 206.272 222.758 207.168 223.27 207.6C223.43 207.776 223.646 207.864 223.918 207.864C224.91 207.864 225.742 207.552 226.414 206.928C227.086 206.288 227.566 205.968 227.854 205.968C227.982 205.968 228.174 206.088 228.43 206.328C228.686 206.568 228.814 206.792 228.814 207C228.814 207.416 228.31 208.016 227.302 208.8C226.854 209.168 226.31 209.48 225.67 209.736C225.046 209.976 224.462 210.096 223.918 210.096C222.526 210.096 221.502 209.2 220.846 207.408C220.43 206.304 220.222 205.088 220.222 203.76C220.222 202.432 220.534 201.288 221.158 200.328C221.782 199.368 222.766 198.888 224.11 198.888ZM224.23 200.544C223.622 200.544 223.102 200.888 222.67 201.576C222.51 201.816 222.358 202.36 222.214 203.208C224.454 203.208 225.574 202.656 225.574 201.552C225.574 200.88 225.126 200.544 224.23 200.544ZM236.276 202.296C236.276 200.44 236.372 199.024 236.564 198.048C236.772 197.056 237.076 196.184 237.476 195.432C237.876 194.664 238.356 193.848 238.916 192.984C239.492 192.12 239.996 191.552 240.428 191.28C240.604 191.184 240.788 191.136 240.98 191.136C241.172 191.136 241.372 191.216 241.58 191.376C241.788 191.536 241.892 191.688 241.892 191.832C241.892 191.96 241.524 192.544 240.788 193.584C240.068 194.608 239.588 195.304 239.348 195.672C239.108 196.04 238.884 196.496 238.676 197.04C238.484 197.568 238.34 198.24 238.244 199.056C238.164 199.856 238.124 200.816 238.124 201.936C238.124 203.056 238.3 204.304 238.652 205.68C239.004 207.056 239.396 207.976 239.828 208.44C241.188 209.912 241.868 210.824 241.868 211.176C241.868 211.352 241.756 211.488 241.532 211.584C241.308 211.696 241.052 211.752 240.764 211.752C240.492 211.752 240.252 211.656 240.044 211.464C238.62 210.04 237.636 208.624 237.092 207.216C236.548 205.792 236.276 204.152 236.276 202.296ZM243.428 204.384C243.428 203.312 243.708 202.336 244.268 201.456C244.844 200.576 245.572 199.92 246.452 199.488C247.332 199.04 248.188 198.816 249.02 198.816C249.852 198.816 250.516 198.92 251.012 199.128C251.524 199.32 251.78 199.584 251.78 199.92C251.78 200.24 251.684 200.568 251.492 200.904C251.316 201.224 251.076 201.384 250.772 201.384C250.66 201.384 250.348 201.296 249.836 201.12C249.34 200.928 249.02 200.832 248.876 200.832C247.948 200.832 247.156 201.176 246.5 201.864C245.844 202.536 245.516 203.432 245.516 204.552C245.516 205.672 245.692 206.512 246.044 207.072C246.412 207.616 247.036 207.888 247.916 207.888C248.268 207.888 248.868 207.688 249.716 207.288C250.58 206.872 251.116 206.664 251.324 206.664C251.532 206.664 251.7 206.728 251.828 206.856C251.956 206.984 252.02 207.144 252.02 207.336C252.02 207.72 251.772 208.128 251.276 208.56C250.796 208.976 250.196 209.328 249.476 209.616C248.756 209.888 248.108 210.024 247.532 210.024C246.252 210.024 245.244 209.52 244.508 208.512C243.788 207.504 243.428 206.128 243.428 204.384ZM259.236 200.976C259.236 203.088 259.036 204.752 258.636 205.968C258.252 207.184 257.484 208.584 256.332 210.168C255.756 210.952 255.364 211.416 255.156 211.56C254.948 211.704 254.724 211.776 254.484 211.776C254.26 211.776 254.052 211.688 253.86 211.512C253.668 211.352 253.572 211.184 253.572 211.008C253.572 210.96 254.004 210.312 254.868 209.064C255.748 207.816 256.34 206.888 256.644 206.28C256.948 205.672 257.156 204.904 257.268 203.976C257.38 203.032 257.436 201.992 257.436 200.856C257.436 199.704 257.252 198.44 256.884 197.064C256.532 195.672 256.14 194.744 255.708 194.28C254.3 192.824 253.596 191.888 253.596 191.472C253.596 191.328 253.708 191.208 253.932 191.112C254.172 191.016 254.436 190.968 254.724 190.968C255.028 190.968 255.236 191.04 255.348 191.184C256.868 192.704 257.892 194.192 258.42 195.648C258.964 197.088 259.236 198.864 259.236 200.976Z" fill="#000080"/>
<path d="M312.384 182.424C311.312 182.424 310.336 182.144 309.456 181.584C308.576 181.008 307.92 180.28 307.488 179.4C307.04 178.52 306.816 177.664 306.816 176.832C306.816 176 306.92 175.336 307.128 174.84C307.32 174.328 307.584 174.072 307.92 174.072C308.24 174.072 308.568 174.168 308.904 174.36C309.224 174.536 309.384 174.776 309.384 175.08C309.384 175.192 309.296 175.504 309.12 176.016C308.928 176.512 308.832 176.832 308.832 176.976C308.832 177.904 309.176 178.696 309.864 179.352C310.536 180.008 311.432 180.336 312.552 180.336C313.672 180.336 314.512 180.16 315.072 179.808C315.616 179.44 315.888 178.816 315.888 177.936C315.888 177.584 315.688 176.984 315.288 176.136C314.872 175.272 314.664 174.736 314.664 174.528C314.664 174.32 314.728 174.152 314.856 174.024C314.984 173.896 315.144 173.832 315.336 173.832C315.72 173.832 316.128 174.08 316.56 174.576C316.976 175.056 317.328 175.656 317.616 176.376C317.888 177.096 318.024 177.744 318.024 178.32C318.024 179.6 317.52 180.608 316.512 181.344C315.504 182.064 314.128 182.424 312.384 182.424ZM306.792 166.087C306.792 165.383 307.392 165.031 308.592 165.031C308.72 165.031 308.856 165.031 309 165.031L310.68 165.079C311.208 165.095 311.728 165.103 312.24 165.103L317.664 164.743C318.064 164.743 318.264 165.151 318.264 165.967C318.264 166.015 318.264 166.135 318.264 166.327C318.264 166.503 318.192 166.631 318.048 166.711C317.904 166.775 317.728 166.783 317.52 166.735C317.312 166.671 317.08 166.687 316.824 166.783C317.608 167.519 318 168.495 318 169.711C318 171.967 316.256 173.095 312.768 173.095C310.832 173.095 309.368 172.735 308.376 172.015C307.384 171.279 306.888 170.231 306.888 168.871C306.888 168.231 307 167.591 307.224 166.951C306.936 166.743 306.792 166.455 306.792 166.087ZM308.976 168.583C308.976 169.495 309.24 170.175 309.768 170.623C310.296 171.071 311.264 171.295 312.672 171.295C315.04 171.295 316.224 170.655 316.224 169.375C316.224 169.039 316.072 168.671 315.768 168.271C315.464 167.855 315.12 167.567 314.736 167.407C313.872 167.103 312.928 166.951 311.904 166.951C310.88 166.951 310.136 167.079 309.672 167.335C309.208 167.575 308.976 167.991 308.976 168.583ZM306.792 162.785L306.816 161.585C306.816 161.313 306.808 161.161 306.792 161.129H301.872C301.6 161.113 301.368 160.977 301.176 160.721C300.984 160.465 300.888 160.225 300.888 160.001C300.888 159.777 300.96 159.601 301.104 159.473C301.248 159.329 301.472 159.265 301.776 159.281C302.08 159.297 303.744 159.305 306.768 159.305L306.672 156.497C306.672 156.017 306.952 155.777 307.512 155.777C307.928 155.777 308.24 155.905 308.448 156.161C308.656 156.401 308.768 156.665 308.784 156.953C308.8 157.225 308.808 157.497 308.808 157.769L308.784 159.233C309.44 159.233 310.736 159.169 312.672 159.041C314.608 158.897 315.864 158.785 316.44 158.705C317 158.625 317.368 158.609 317.544 158.657C317.704 158.705 317.816 158.793 317.88 158.921C317.976 159.129 318.024 159.409 318.024 159.761C318.024 160.113 317.832 160.321 317.448 160.385C315.352 160.705 312.472 160.921 308.808 161.033C308.824 161.177 308.832 161.729 308.832 162.689C308.832 163.649 308.552 164.129 307.992 164.129C307.192 164.129 306.792 163.681 306.792 162.785ZM306.888 151.679C306.888 150.831 307.136 150.023 307.632 149.255C308.128 148.487 308.744 148.103 309.48 148.103C310.2 148.103 310.904 148.415 311.592 149.039C312.264 149.663 312.672 150.495 312.816 151.535C312.88 151.983 312.912 152.655 312.912 153.551C314.272 153.375 315.168 153.031 315.6 152.519C315.776 152.359 315.864 152.143 315.864 151.871C315.864 150.879 315.552 150.047 314.928 149.375C314.288 148.703 313.968 148.223 313.968 147.935C313.968 147.807 314.088 147.615 314.328 147.359C314.568 147.103 314.792 146.975 315 146.975C315.416 146.975 316.016 147.479 316.8 148.487C317.168 148.935 317.48 149.479 317.736 150.119C317.976 150.743 318.096 151.327 318.096 151.871C318.096 153.263 317.2 154.287 315.408 154.943C314.304 155.359 313.088 155.567 311.76 155.567C310.432 155.567 309.288 155.255 308.328 154.631C307.368 154.007 306.888 153.023 306.888 151.679ZM308.544 151.559C308.544 152.167 308.888 152.687 309.576 153.119C309.816 153.279 310.36 153.431 311.208 153.575C311.208 151.335 310.656 150.215 309.552 150.215C308.88 150.215 308.544 150.663 308.544 151.559ZM306.792 144.972L306.816 143.772C306.816 143.5 306.808 143.348 306.792 143.316H301.872C301.6 143.3 301.368 143.164 301.176 142.908C300.984 142.652 300.888 142.412 300.888 142.188C300.888 141.964 300.96 141.788 301.104 141.66C301.248 141.516 301.472 141.452 301.776 141.468C302.08 141.484 303.744 141.492 306.768 141.492L306.672 138.684C306.672 138.204 306.952 137.964 307.512 137.964C307.928 137.964 308.24 138.092 308.448 138.348C308.656 138.588 308.768 138.852 308.784 139.14C308.8 139.412 308.808 139.684 308.808 139.956L308.784 141.42C309.44 141.42 310.736 141.356 312.672 141.228C314.608 141.084 315.864 140.972 316.44 140.892C317 140.812 317.368 140.796 317.544 140.844C317.704 140.892 317.816 140.98 317.88 141.108C317.976 141.316 318.024 141.596 318.024 141.948C318.024 142.3 317.832 142.508 317.448 142.572C315.352 142.892 312.472 143.108 308.808 143.22C308.824 143.364 308.832 143.916 308.832 144.876C308.832 145.836 308.552 146.316 307.992 146.316C307.192 146.316 306.792 145.868 306.792 144.972ZM306.816 133.074C306.816 131.922 307.368 130.978 308.472 130.242C309.576 129.49 310.904 129.114 312.456 129.114C313.992 129.114 315.304 129.498 316.392 130.266C317.48 131.018 318.024 132.026 318.024 133.29C318.024 134.538 317.472 135.546 316.368 136.314C315.248 137.082 314.008 137.466 312.648 137.466C310.904 137.466 309.512 137.114 308.472 136.41C307.368 135.658 306.816 134.546 306.816 133.074ZM308.784 133.362C308.784 134.034 309.136 134.586 309.84 135.018C310.544 135.45 311.288 135.666 312.072 135.666C313.288 135.666 314.216 135.426 314.856 134.946C315.496 134.466 315.816 133.922 315.816 133.314C315.816 132.226 315.344 131.53 314.4 131.226C313.952 131.098 313.392 131.034 312.72 131.034C310.096 131.034 308.784 131.81 308.784 133.362ZM306.816 117.863C306.816 116.711 307.368 115.767 308.472 115.031C309.576 114.279 310.904 113.903 312.456 113.903C313.992 113.903 315.304 114.287 316.392 115.055C317.48 115.807 318.024 116.815 318.024 118.079C318.024 119.327 317.472 120.335 316.368 121.103C315.248 121.871 314.008 122.255 312.648 122.255C310.904 122.255 309.512 121.903 308.472 121.199C307.368 120.447 306.816 119.335 306.816 117.863ZM308.784 118.151C308.784 118.823 309.136 119.375 309.84 119.807C310.544 120.239 311.288 120.455 312.072 120.455C313.288 120.455 314.216 120.215 314.856 119.735C315.496 119.255 315.816 118.711 315.816 118.103C315.816 117.015 315.344 116.319 314.4 116.015C313.952 115.887 313.392 115.823 312.72 115.823C310.096 115.823 308.784 116.599 308.784 118.151ZM317.976 108.64C317.976 109.184 317.792 109.688 317.424 110.152C317.424 110.152 317.336 110.256 317.16 110.464H324.36C324.68 110.56 324.944 110.728 325.152 110.968C325.376 111.208 325.488 111.464 325.488 111.736C325.488 112.152 325.208 112.36 324.648 112.36H307.92C307.504 112.264 307.208 112.152 307.032 112.024C306.856 111.88 306.768 111.664 306.768 111.376C306.768 111.072 306.84 110.88 306.984 110.8C307.112 110.704 307.48 110.592 308.088 110.464C307.768 110.4 307.472 110.144 307.2 109.696C306.928 109.248 306.792 108.648 306.792 107.896C306.792 106.264 307.384 105.104 308.568 104.416C309.752 103.728 311.152 103.384 312.768 103.384C314.368 103.384 315.64 103.856 316.584 104.8C317.512 105.728 317.976 107.008 317.976 108.64ZM310.776 110.464H315.24C315.288 110.368 315.368 110.256 315.48 110.128C315.896 109.664 316.104 109.16 316.104 108.616C316.104 106.408 314.968 105.304 312.696 105.304C310.76 105.304 309.536 105.8 309.024 106.792C308.8 107.208 308.688 107.72 308.688 108.328C308.768 108.92 309.032 109.424 309.48 109.84C309.912 110.256 310.344 110.464 310.776 110.464ZM306.816 97.9181C306.816 96.7661 307.368 95.8221 308.472 95.0861C309.576 94.3341 310.904 93.9581 312.456 93.9581C313.992 93.9581 315.304 94.3421 316.392 95.1101C317.48 95.8621 318.024 96.8701 318.024 98.1341C318.024 99.3821 317.472 100.39 316.368 101.158C315.248 101.926 314.008 102.31 312.648 102.31C310.904 102.31 309.512 101.958 308.472 101.254C307.368 100.502 306.816 99.3901 306.816 97.9181ZM308.784 98.2061C308.784 98.8781 309.136 99.4301 309.84 99.8621C310.544 100.294 311.288 100.51 312.072 100.51C313.288 100.51 314.216 100.27 314.856 99.7901C315.496 99.3101 315.816 98.7661 315.816 98.1581C315.816 97.0701 315.344 96.3741 314.4 96.0701C313.952 95.9421 313.392 95.8781 312.72 95.8781C310.096 95.8781 308.784 96.6541 308.784 98.2061ZM309.84 92.0784C308.896 92.0784 308.144 91.7424 307.584 91.0704C307.024 90.3984 306.744 89.6224 306.744 88.7424C306.744 87.8464 306.904 86.9904 307.224 86.1744C307.544 85.3584 307.968 84.9504 308.496 84.9504C308.768 84.9504 308.984 85.0544 309.144 85.2624C309.304 85.4704 309.384 85.6544 309.384 85.8144C309.384 85.9584 309.384 86.0784 309.384 86.1744C309.368 86.2544 309.216 86.5744 308.928 87.1344C308.64 87.6784 308.496 88.1824 308.496 88.6464C308.496 89.1104 308.616 89.5104 308.856 89.8464C309.08 90.1664 309.416 90.3264 309.864 90.3264C310.312 90.3264 310.664 90.1424 310.92 89.7744C311.176 89.3904 311.4 88.7264 311.592 87.7824C311.768 86.8384 312.024 86.1184 312.36 85.6224C312.696 85.1104 313.32 84.8544 314.232 84.8544C315.56 84.8544 316.504 85.2064 317.064 85.9104C317.608 86.5984 317.88 87.4384 317.88 88.4304C317.88 89.4224 317.744 90.2704 317.472 90.9744C317.2 91.6624 316.792 92.0064 316.248 92.0064C315.624 92.0064 315.312 91.6944 315.312 91.0704C315.312 90.9104 315.424 90.5584 315.648 90.0144C315.872 89.4704 315.984 88.9344 315.984 88.4064C315.984 87.8624 315.816 87.4544 315.48 87.1824C315.128 86.8944 314.728 86.7504 314.28 86.7504C313.832 86.7504 313.512 86.9344 313.32 87.3024C313.112 87.6704 312.944 88.2304 312.816 88.9824C312.688 89.7344 312.552 90.2864 312.408 90.6384C312.024 91.5984 311.168 92.0784 309.84 92.0784ZM306.792 82.6521L306.816 81.4521C306.816 81.1801 306.808 81.0281 306.792 80.9961H301.872C301.6 80.9801 301.368 80.8441 301.176 80.5881C300.984 80.3321 300.888 80.0921 300.888 79.8681C300.888 79.6441 300.96 79.4681 301.104 79.3401C301.248 79.1961 301.472 79.1321 301.776 79.1481C302.08 79.1641 303.744 79.1721 306.768 79.1721L306.672 76.3641C306.672 75.8841 306.952 75.6441 307.512 75.6441C307.928 75.6441 308.24 75.7721 308.448 76.0281C308.656 76.2681 308.768 76.5321 308.784 76.8201C308.8 77.0921 308.808 77.3641 308.808 77.6361L308.784 79.1001C309.44 79.1001 310.736 79.0361 312.672 78.9081C314.608 78.7641 315.864 78.6521 316.44 78.5721C317 78.4921 317.368 78.4761 317.544 78.5241C317.704 78.5721 317.816 78.6601 317.88 78.7881C317.976 78.9961 318.024 79.2761 318.024 79.6281C318.024 79.9801 317.832 80.1881 317.448 80.2521C315.352 80.5721 312.472 80.7881 308.808 80.9001C308.824 81.0441 308.832 81.5961 308.832 82.5561C308.832 83.5161 308.552 83.9961 307.992 83.9961C307.192 83.9961 306.792 83.5481 306.792 82.6521ZM306.816 70.7541C306.816 69.6021 307.368 68.6581 308.472 67.9221C309.576 67.1701 310.904 66.7941 312.456 66.7941C313.992 66.7941 315.304 67.1781 316.392 67.9461C317.48 68.6981 318.024 69.7061 318.024 70.9701C318.024 72.2181 317.472 73.2261 316.368 73.9941C315.248 74.7621 314.008 75.1461 312.648 75.1461C310.904 75.1461 309.512 74.7941 308.472 74.0901C307.368 73.3381 306.816 72.2261 306.816 70.7541ZM308.784 71.0421C308.784 71.7141 309.136 72.2661 309.84 72.6981C310.544 73.1301 311.288 73.3461 312.072 73.3461C313.288 73.3461 314.216 73.1061 314.856 72.6261C315.496 72.1461 315.816 71.6021 315.816 70.9941C315.816 69.9061 315.344 69.2101 314.4 68.9061C313.952 68.7781 313.392 68.7141 312.72 68.7141C310.096 68.7141 308.784 69.4901 308.784 71.0421ZM310.296 59.2631C308.44 59.2631 307.024 59.1671 306.048 58.9751C305.056 58.7671 304.184 58.4631 303.432 58.0631C302.664 57.6631 301.848 57.1831 300.984 56.6231C300.12 56.0471 299.552 55.5431 299.28 55.1111C299.184 54.9351 299.136 54.7511 299.136 54.5591C299.136 54.3671 299.216 54.1671 299.376 53.9591C299.536 53.7511 299.688 53.6471 299.832 53.6471C299.96 53.6471 300.544 54.0151 301.584 54.7511C302.608 55.4711 303.304 55.9511 303.672 56.1911C304.04 56.4311 304.496 56.6551 305.04 56.8631C305.568 57.0551 306.24 57.1991 307.056 57.2951C307.856 57.3751 308.816 57.4151 309.936 57.4151C311.056 57.4151 312.304 57.2391 313.68 56.8871C315.056 56.5351 315.976 56.1431 316.44 55.7111C317.912 54.3511 318.824 53.6711 319.176 53.6711C319.352 53.6711 319.488 53.7831 319.584 54.0071C319.696 54.2311 319.752 54.4871 319.752 54.7751C319.752 55.0471 319.656 55.2871 319.464 55.4951C318.04 56.9191 316.624 57.9031 315.216 58.4471C313.792 58.9911 312.152 59.2631 310.296 59.2631ZM301.776 51.7275C301.136 51.7275 300.816 51.3275 300.816 50.5275C300.816 50.1595 301.04 49.9435 301.488 49.8795H305.088C305.76 49.8795 306.432 49.8715 307.104 49.8555C307.008 49.5355 306.96 49.1275 306.96 48.6315C306.96 47.0795 307.48 45.8795 308.52 45.0315C309.56 44.1835 310.864 43.7595 312.432 43.7595C314 43.7595 315.328 44.2635 316.416 45.2715C317.488 46.2635 318.024 47.5435 318.024 49.1115C318.024 50.6795 317.584 51.4635 316.704 51.4635C315.808 51.4635 313.552 51.5115 309.936 51.6075C306.304 51.6875 303.584 51.7275 301.776 51.7275ZM309.504 46.8795C309.056 47.4555 308.832 48.0635 308.832 48.7035C308.832 49.0555 308.896 49.4155 309.024 49.7835C310.336 49.6875 312.664 49.6395 316.008 49.6395C316.104 49.3675 316.152 49.0875 316.152 48.7995C316.152 48.1755 315.92 47.5515 315.456 46.9275C314.816 45.9995 313.84 45.5355 312.528 45.5355C311.2 45.5355 310.192 45.9835 309.504 46.8795ZM308.976 35.7169C311.088 35.7169 312.752 35.9169 313.968 36.3169C315.184 36.7009 316.584 37.4689 318.168 38.6209C318.952 39.1969 319.416 39.5889 319.56 39.7969C319.704 40.0049 319.776 40.2289 319.776 40.4689C319.776 40.6929 319.688 40.9009 319.512 41.0929C319.352 41.2849 319.184 41.3809 319.008 41.3809C318.96 41.3809 318.312 40.9489 317.064 40.0849C315.816 39.2049 314.888 38.6129 314.28 38.3089C313.672 38.0049 312.904 37.7969 311.976 37.6849C311.032 37.5729 309.992 37.5169 308.856 37.5169C307.704 37.5169 306.44 37.7009 305.064 38.0689C303.672 38.4209 302.744 38.8129 302.28 39.2449C300.824 40.6529 299.888 41.3569 299.472 41.3569C299.328 41.3569 299.208 41.2449 299.112 41.0209C299.016 40.7809 298.968 40.5169 298.968 40.2289C298.968 39.9249 299.04 39.7169 299.184 39.6049C300.704 38.0849 302.192 37.0609 303.648 36.5329C305.088 35.9889 306.864 35.7169 308.976 35.7169Z" fill="#000080"/>
</svg>
